<svg width="26" height="26" viewBox="0 0 26 26" fill="none" xmlns="http://www.w3.org/2000/svg">
<g opacity="0.25" clip-path="url(#clip0_5_347)">
<path d="M20.6172 15.3359H24.601L25.9537 8.84792C26.063 8.18512 25.8764 7.51192 25.4427 7.00167C25.0075 6.48913 24.37 6.19531 23.6946 6.19531H2.30543C1.62998 6.19531 0.992527 6.48913 0.557331 7.00167C0.12366 7.51197 -0.0630631 8.18518 0.0522611 8.87991L1.39893 15.3359H5.38282C5.80385 15.3359 6.14454 15.6766 6.14454 16.0977C6.14454 16.5187 5.80385 16.8594 5.38282 16.8594H1.39903L0.0463197 23.3474C-0.0630123 24.0102 0.12366 24.6834 0.557331 25.1936C0.992527 25.7062 1.63003 26 2.30543 26H23.6945C24.37 26 25.0074 25.7062 25.4426 25.1936C25.8763 24.6833 26.063 24.0101 25.9477 23.3154L24.6011 16.8594H20.6172C20.1962 16.8594 19.8555 16.5187 19.8555 16.0977C19.8555 15.6766 20.1962 15.3359 20.6172 15.3359ZM13 18.3828C13 20.0632 11.6335 21.4297 9.95313 21.4297C8.66476 21.4297 7.50954 20.6137 7.08033 19.3982C6.93972 19.0017 7.14726 18.5665 7.54453 18.4267C7.9395 18.2854 8.37617 18.4944 8.51602 18.8909C8.73098 19.4979 9.30892 19.9062 9.95313 19.9062C10.793 19.9062 11.4766 19.2226 11.4766 18.3828C11.4766 17.543 10.793 16.8594 9.95313 16.8594H9.00621C8.58595 16.8594 8.2445 16.5187 8.2445 16.0977C8.2445 15.6766 8.58595 15.3359 9.00621 15.3359H9.95313C10.793 15.3359 11.4766 14.6523 11.4766 13.8125C11.4766 12.9727 10.793 12.2891 9.95313 12.2891C9.30892 12.2891 8.73098 12.6974 8.51597 13.3044C8.37612 13.7016 7.93874 13.9099 7.54448 13.7686C7.14726 13.6288 6.93972 13.1936 7.08028 12.7971C7.50954 11.5816 8.66476 10.7656 9.95313 10.7656C11.6335 10.7656 13 12.1321 13 13.8125C13 14.7215 12.5998 15.539 11.9661 16.0977C12.5998 16.6563 13 17.4738 13 18.3828ZM18.332 20.668C18.332 21.089 17.9913 21.4297 17.5703 21.4297C17.1493 21.4297 16.8086 21.089 16.8086 20.668V12.9503L15.7077 13.6845C15.3566 13.9166 14.8842 13.8229 14.6514 13.4733C14.4178 13.1229 14.5123 12.6506 14.8626 12.417L17.1478 10.8935C17.3814 10.7381 17.6826 10.7232 17.9296 10.8556C18.1773 10.988 18.332 11.2462 18.332 11.5273V20.668Z" fill="black"/>
<path d="M1.6601 2.28516V4.57031H24.5117V2.28516C24.5117 1.02507 23.4866 0 22.2265 0H3.94525C2.68511 0 1.6601 1.02507 1.6601 2.28516ZM20.7031 1.52344C21.1237 1.52344 21.4648 1.86438 21.4648 2.28516C21.4648 2.70583 21.1237 3.04688 20.7031 3.04688C20.2824 3.04688 19.9413 2.70583 19.9413 2.28516C19.9413 1.86438 20.2824 1.52344 20.7031 1.52344ZM5.46869 1.52344C5.88936 1.52344 6.23041 1.86438 6.23041 2.28516C6.23041 2.70583 5.88936 3.04688 5.46869 3.04688C5.04802 3.04688 4.70697 2.70583 4.70697 2.28516C4.70697 1.86438 5.04802 1.52344 5.46869 1.52344Z" fill="black"/>
</g>
<defs>
<clipPath id="clip0_5_347">
<rect width="26" height="26" fill="white"/>
</clipPath>
</defs>
</svg>
