<svg width="26" height="26" viewBox="0 0 26 26" fill="none" xmlns="http://www.w3.org/2000/svg">
<g clip-path="url(#clip0_5_350)">
<path d="M25.2989 11.3087C25.2983 11.3082 25.2977 11.3076 25.2971 11.307L14.6912 0.701416C14.2391 0.249146 13.6381 0 12.9987 0C12.3594 0 11.7584 0.248947 11.3061 0.701218L0.705708 11.3014C0.702137 11.305 0.698566 11.3087 0.694996 11.3123C-0.233349 12.246 -0.231762 13.7609 0.699558 14.6922C1.12505 15.1179 1.68702 15.3645 2.28786 15.3903C2.31226 15.3927 2.33686 15.3939 2.36165 15.3939H2.78437V23.1989C2.78437 24.7434 4.041 26 5.58587 26H9.73525C10.1558 26 10.497 25.659 10.497 25.2383V19.1191C10.497 18.4144 11.0702 17.8411 11.775 17.8411H14.2224C14.9272 17.8411 15.5005 18.4144 15.5005 19.1191V25.2383C15.5005 25.659 15.8415 26 16.2622 26H20.4116C21.9565 26 23.2131 24.7434 23.2131 23.1989V15.3939H23.6051C24.2442 15.3939 24.8452 15.1449 25.2977 14.6926C26.23 13.7597 26.2304 12.2422 25.2989 11.3087Z" fill="#0788DB"/>
</g>
<defs>
<clipPath id="clip0_5_350">
<rect width="26" height="26" fill="white"/>
</clipPath>
</defs>
</svg>
