<svg width="26" height="26" viewBox="0 0 26 26" fill="none" xmlns="http://www.w3.org/2000/svg">
<g opacity="0.25" clip-path="url(#clip0_5_343)">
<path d="M15.7853 14.6843L22.684 21.5831C24.6409 19.3882 25.7807 16.6361 25.9493 13.7003H16.1929C16.1114 14.0488 15.9741 14.3803 15.7853 14.6843Z" fill="black"/>
<path d="M12.9606 16.2584C11.1296 16.2584 9.63993 14.7688 9.63993 12.9379C9.63993 11.3693 10.7337 10.0521 12.1982 9.70658V-0.0507812C9.00952 0.132309 6.03703 1.46056 3.7602 3.73739C1.30266 6.19493 -0.0507812 9.46239 -0.0507812 12.9379C-0.0507812 16.4133 1.30266 19.6808 3.7602 22.1383C6.21774 24.5958 9.4852 25.9493 12.9606 25.9493C16.1806 25.9493 19.2217 24.7867 21.6059 22.6614L14.707 15.7625C14.1874 16.0852 13.5874 16.2584 12.9606 16.2584Z" fill="black"/>
<path d="M16.1919 12.1754H25.9493C25.7662 8.98671 24.4379 6.01442 22.1609 3.73739C19.8841 1.46056 16.9118 0.132309 13.7229 -0.0507812V9.70658C14.9426 9.9944 15.9041 10.9559 16.1919 12.1754Z" fill="black"/>
</g>
<defs>
<clipPath id="clip0_5_343">
<rect width="26" height="26" fill="white"/>
</clipPath>
</defs>
</svg>
