<svg width="6" height="6" viewBox="0 0 6 6" fill="none" xmlns="http://www.w3.org/2000/svg">
<g clip-path="url(#clip0_29_162)">
<path d="M0.720657 3.27667C0.709076 3.18018 0.703125 3.08432 0.703125 3C0.703125 1.74138 1.74138 0.703125 3 0.703125C3.58708 0.703125 4.13672 0.939835 4.54102 1.30898L4.33827 1.51524C4.29259 1.56093 4.27501 1.62772 4.29259 1.69102C4.31369 1.75076 4.3629 1.79649 4.42616 1.81055C4.46155 1.81764 5.62399 2.19223 5.54997 2.17735C5.64413 2.20871 5.78339 2.10828 5.75743 1.96994C5.75029 1.93451 5.49294 0.643204 5.50781 0.717178C5.49376 0.653915 5.44803 0.601181 5.38477 0.583603C5.32503 0.566025 5.25819 0.583603 5.21251 0.629288L5.04025 0.798019C4.50938 0.302353 3.78044 0 3 0C1.35118 0 0 1.35118 0 3V3.007C0 3.10611 0.00453186 3.18269 0.00979615 3.24129C0.0167999 3.31892 0.0740204 3.38251 0.150467 3.39784L0.511597 3.47003C0.62915 3.49356 0.734848 3.395 0.720657 3.27667Z" fill="#F1E107"/>
<path d="M5.8505 2.60188L5.48832 2.52809C5.37063 2.50411 5.2642 2.60275 5.27866 2.72163C5.2912 2.82422 5.29679 2.92397 5.29679 3C5.29679 4.25858 4.25854 5.29688 2.99991 5.29688C2.41283 5.29688 1.8632 5.06017 1.4589 4.6875L1.66164 4.48476C1.70733 4.43907 1.72491 4.37228 1.70733 4.30898C1.68622 4.24919 1.63701 4.20351 1.57375 4.18945C1.53837 4.18231 0.375921 3.80777 0.449942 3.82265C0.390158 3.81212 0.330374 3.8297 0.291739 3.87186C0.249533 3.91054 0.231955 3.9738 0.242483 4.03006C0.249624 4.06545 0.507025 5.34503 0.492147 5.27106C0.506155 5.33437 0.551886 5.3871 0.615149 5.40463C0.688528 5.42304 0.749777 5.40079 0.787405 5.35895L0.956183 5.19022C1.48701 5.68593 2.21595 6 2.99991 6C4.64873 6 5.99991 4.64882 5.99991 3V2.98943C5.99991 2.91152 5.99708 2.83502 5.99058 2.75899C5.98389 2.68131 5.9269 2.61749 5.8505 2.60188Z" fill="#F1E107"/>
</g>
<defs>
<clipPath id="clip0_29_162">
<rect width="6" height="6" fill="white"/>
</clipPath>
</defs>
</svg>
