<svg width="26" height="26" viewBox="0 0 26 26" fill="none" xmlns="http://www.w3.org/2000/svg">
<path d="M13 26C5.83171 26 0 20.1683 0 13C0 5.83171 5.83171 0 13 0C20.1683 0 26 5.83171 26 13C26 20.1683 20.1683 26 13 26ZM19.0938 10.7656C17.8617 10.7656 16.8594 11.768 16.8594 13C16.8594 14.232 17.8617 15.2344 19.0938 15.2344C20.3258 15.2344 21.3281 14.232 21.3281 13C21.3281 11.768 20.3258 10.7656 19.0938 10.7656ZM13 10.7656C11.768 10.7656 10.7656 11.768 10.7656 13C10.7656 14.232 11.768 15.2344 13 15.2344C14.232 15.2344 15.2344 14.232 15.2344 13C15.2344 11.768 14.232 10.7656 13 10.7656ZM6.90625 10.7656C5.67421 10.7656 4.67188 11.768 4.67188 13C4.67188 14.232 5.67421 15.2344 6.90625 15.2344C8.13829 15.2344 9.14062 14.232 9.14062 13C9.14062 11.768 8.13829 10.7656 6.90625 10.7656ZM19.0938 13.8125C18.6381 13.8125 18.2812 13.4556 18.2812 13C18.2812 12.5444 18.6381 12.1875 19.0938 12.1875C19.5494 12.1875 19.9062 12.5444 19.9062 13C19.9062 13.4556 19.5494 13.8125 19.0938 13.8125ZM13 13.8125C12.5444 13.8125 12.1875 13.4556 12.1875 13C12.1875 12.5444 12.5444 12.1875 13 12.1875C13.4556 12.1875 13.8125 12.5444 13.8125 13C13.8125 13.4556 13.4556 13.8125 13 13.8125ZM6.90625 13.8125C6.45061 13.8125 6.09375 13.4556 6.09375 13C6.09375 12.5444 6.45061 12.1875 6.90625 12.1875C7.36189 12.1875 7.71875 12.5444 7.71875 13C7.71875 13.4556 7.36189 13.8125 6.90625 13.8125Z" fill="black"/>
</svg>
